<svg xmlns="http://www.w3.org/2000/svg" width="25.505" height="22.5" viewBox="0 0 25.505 22.5">
    <defs>
        <clipPath id="clip-path">
            <path id="Tracé_1689" data-name="Tracé 1689" d="M235.722 302.722a7.994 7.994 0 1 1-7.139 8.709 7.939 7.939 0 0 1 7.139-8.709z" transform="translate(-228.547 -302.686)" style="clip-rule:evenodd;fill:#ff7900"/>
        </clipPath>
        <style>
            .cls-2{fill:#ffb800;stroke:transparent;stroke-miterlimit:10}.cls-3{fill:#ffda46;fill-rule:evenodd}.cls-8{fill:#fff}
        </style>
    </defs>
    <g id="Pin_Out" data-name="Pin/Out" transform="translate(.505)">
        <g id="Groupe_5784" data-name="Groupe 5784">
            <path id="Soustraction_13" data-name="Soustraction 13" class="cls-2" d="M10.216 20.863a10.391 10.391 0 0 1-6.882-2.556 9.8 9.8 0 0 1-3.291-6.482A11.077 11.077 0 0 1 9.751.095 11.211 11.211 0 0 1 11.2 0a10.039 10.039 0 0 1 10.1 8.472h-2.253a.571.571 0 0 0-.416.18.639.639 0 0 0-.17.439V11.2a.639.639 0 0 0 .17.439.567.567 0 0 0 .413.18h2.2a11.263 11.263 0 0 1-11.031 9.043z" transform="translate(0 1.137)"/>
            <path id="Tracé_1431" data-name="Tracé 1431" class="cls-3" d="M102.5 558.319q-.041.437-.043.879l1.161-.112q-.031-.437-.027-.872l-1.09.1zm-.011 1.718c0 .038.006.075.01.112a9.741 9.741 0 0 0 .152 1.035l1.286-.124a11.078 11.078 0 0 1-.229-1.141l-1.219.117zm.7 2.9a9.347 9.347 0 0 0 .852 1.6l1.39-.134a10.821 10.821 0 0 1-.881-1.6l-1.361.131zm1.4 2.345q.072.088.146.175a9.978 9.978 0 0 0 7.169 3.433 10.537 10.537 0 0 1-4.455-2.229 10.746 10.746 0 0 1-1.473-1.512l-1.387.133z" transform="translate(-102.079 -547.287)"/>
            <path id="Soustraction_10" data-name="Soustraction 10" d="M10.173 20.767a10.046 10.046 0 0 1-6.825-2.688A10.526 10.526 0 0 1 2.34 3.763 10.062 10.062 0 0 1 9.229.046C9.55.016 9.876 0 10.2 0a10.067 10.067 0 0 1 6.55 2.443 10.426 10.426 0 0 1 3.474 6.178h-3.048a.575.575 0 0 0-.415.18.639.639 0 0 0-.171.439v2.11a.639.639 0 0 0 .171.439.571.571 0 0 0 .412.18h3.078a10.255 10.255 0 0 1-9.111 8.751c-.32.031-.646.047-.967.047z" transform="translate(1.87 .988)" style="fill:#ffd200;stroke:transparent;stroke-miterlimit:10"/>
            <path id="Soustraction_11" data-name="Soustraction 11" class="cls-2" d="M6.5 19.074a9.824 9.824 0 0 1-6.293-2.3 12.17 12.17 0 0 1-.208-.179 11.185 11.185 0 0 0 1.224.068 11.248 11.248 0 0 0 1.677-.122 8.031 8.031 0 0 0 3.6.845c.259 0 .522-.013.781-.037a6.261 6.261 0 0 0 4.94-2.724 8.035 8.035 0 0 0 2.027-3.839h2a10.043 10.043 0 0 1-2.127 4.666 9.782 9.782 0 0 1-6.686 3.577c-.308.029-.623.045-.935.045zm9.759-11.635h-2a8.012 8.012 0 0 0-1.894-3.747A18.731 18.731 0 0 0 10.646 0a9.9 9.9 0 0 1 2.166 1.38 10.01 10.01 0 0 1 3.447 6.058z" transform="translate(5.484 2.171)"/>
            <path id="Soustraction_12" data-name="Soustraction 12" d="M7.908 15.99A7.85 7.85 0 0 1 2.6 13.92 8.018 8.018 0 0 1 7.174.036c.25-.024.5-.036.752-.036a7.879 7.879 0 0 1 4.989 1.8 8.018 8.018 0 0 1 2.751 4.562h-.7a.576.576 0 0 0-.416.18.634.634 0 0 0-.17.439v2.105a.634.634 0 0 0 .17.439.572.572 0 0 0 .413.18h.687a7.972 7.972 0 0 1-2.447 4.238 7.817 7.817 0 0 1-4.546 2.01 7.453 7.453 0 0 1-.749.037z" transform="translate(4.077 3.251)" style="stroke:transparent;stroke-miterlimit:10;fill:#ff7900"/>
            <path id="Soustraction_14" data-name="Soustraction 14" d="M1.894 15.984a7.969 7.969 0 0 0 6.213-6.728.629.629 0 0 0 .149.269.571.571 0 0 0 .412.18h.687a7.973 7.973 0 0 1-2.447 4.238 7.815 7.815 0 0 1-4.546 2.01c-.15.015-.308.025-.468.031zm6.191-9.062A7.99 7.99 0 0 0 .272.165C.18.165.091.167 0 .17A7.918 7.918 0 0 1 .877.036C1.127.012 1.38 0 1.629 0a7.879 7.879 0 0 1 4.99 1.8A8.018 8.018 0 0 1 9.37 6.358h-.7a.575.575 0 0 0-.415.18.634.634 0 0 0-.169.384z" transform="translate(10.374 3.251)" style="fill:#f97600;stroke:transparent;stroke-miterlimit:10"/>
            <path id="Tracé_1436" data-name="Tracé 1436" class="cls-3" d="M727.753 230.661c.188 0 .347.4.4.955.552.053.953.212.953.4s-.4.347-.953.4c-.053.553-.212.955-.4.955s-.346-.4-.4-.955c-.553-.053-.955-.212-.955-.4s.4-.347.955-.4c.053-.553.211-.955.4-.955zm2 3.907a.36.36 0 1 1-.359.36.358.358 0 0 1 .359-.36z" transform="translate(-707.562 -230.661)"/>
            <path id="Tracé_1437" data-name="Tracé 1437" class="cls-3" d="M161.155 224.705a10.139 10.139 0 0 1 6.947 1.9 10.131 10.131 0 0 0-6.616-1.671 10.408 10.408 0 0 0-5.022 18.758 10.407 10.407 0 0 1 4.691-18.988z" transform="translate(-149.969 -223.796)"/>
            <g id="Groupe_de_masques_3598" data-name="Groupe de masques 3598" transform="translate(4.076 3.252)" style="clip-path:url(#clip-path)">
                <g id="Groupe_3849" data-name="Groupe 3849" transform="translate(3.149 3.406)">
                    <ellipse id="Ellipse_356" data-name="Ellipse 356" class="cls-8" cx="4.625" cy="4.631" rx="4.625" ry="4.631"/>
                    <circle id="Ellipse_357" data-name="Ellipse 357" cx="2.601" cy="2.601" r="2.601" transform="translate(2.023 2.026)" style="fill:#ff7900"/>
                    <path id="Rectangle_1975" data-name="Rectangle 1975" class="cls-8" transform="translate(0 4.631)" d="M0 0h2.023v7.526H0z"/>
                </g>
            </g>
            <g id="Groupe_5777" data-name="Groupe 5777" transform="rotate(-90 16.673 -2.812)">
                <path id="Shape" d="m.185 3.377 1.182-.016V.424a.41.41 0 0 1 .13-.3A.458.458 0 0 1 1.815 0h1.524a.458.458 0 0 1 .317.123.41.41 0 0 1 .13.3v2.938h1.356l-2.161 2a.566.566 0 0 1-.392.156h-.024a.6.6 0 0 1-.4-.156L0 3.361h1.367z" style="fill:#e85e3a;fill-rule:evenodd"/>
            </g>
        </g>
    </g>
</svg>
