<svg xmlns="http://www.w3.org/2000/svg" width="25.505" height="22.5" viewBox="0 0 25.505 22.5">
    <defs>
        <clipPath id="clip-path">
            <path id="Tracé_1689" data-name="Tracé 1689" d="M235.638 302.722a7.995 7.995 0 1 1-7.055 8.709 7.872 7.872 0 0 1 7.055-8.709z" transform="translate(-228.547 -302.686)" style="clip-rule:evenodd;fill:#ff7900"/>
        </clipPath>
        <style>
            .cls-2{fill:#ffb800;stroke:transparent;stroke-miterlimit:10}.cls-3{fill:#ffda46;fill-rule:evenodd}.cls-8{fill:#fff}
        </style>
    </defs>
    <g id="Pin_IN" data-name="Pin/IN" transform="translate(.505)">
        <g id="Groupe_5778" data-name="Groupe 5778">
            <g id="Groupe_5785" data-name="Groupe 5785">
                <path id="Soustraction_9" data-name="Soustraction 9" class="cls-2" d="M10.1 20.864a10.2 10.2 0 0 1-6.8-2.555 9.842 9.842 0 0 1-3.257-6.483 10.621 10.621 0 0 1 2.419-7.718A11.13 11.13 0 0 1 9.637.095 10.946 10.946 0 0 1 11.067 0a10.175 10.175 0 0 1 6.127 2.006 9.738 9.738 0 0 1 3.591 5.212L18.89 9.24a.9.9 0 0 0-.241.617v.038a.852.852 0 0 0 .241.6l1.946 2.073a11.179 11.179 0 0 1-9.308 8.2 10.953 10.953 0 0 1-1.428.096z" transform="translate(0 1.136)"/>
                <path id="Tracé_1431" data-name="Tracé 1431" class="cls-3" d="M102.5 558.319q-.04.438-.043.879l1.147-.111q-.031-.437-.027-.872l-1.077.1zm-.011 1.719q0 .056.01.112a9.866 9.866 0 0 0 .15 1.035l1.271-.124a11.188 11.188 0 0 1-.226-1.141l-1.2.117zm.687 2.9a9.417 9.417 0 0 0 .842 1.6l1.374-.134a10.879 10.879 0 0 1-.871-1.6l-1.345.131zm1.384 2.345q.071.088.144.175a9.816 9.816 0 0 0 7.084 3.433 10.37 10.37 0 0 1-4.4-2.229 10.732 10.732 0 0 1-1.456-1.513l-1.37.133z" transform="translate(-102.083 -547.287)"/>
                <path id="Soustraction_8" data-name="Soustraction 8" d="M10.053 20.767a9.862 9.862 0 0 1-6.744-2.688 10.618 10.618 0 0 1-1-14.316A9.909 9.909 0 0 1 9.121.046C9.44.016 9.762 0 10.077 0A10.111 10.111 0 0 1 19.5 6.766l-2.46 2.622a.883.883 0 0 0-.179.284.9.9 0 0 0-.062.333V10.434l.005.01v.008l.005.01v.008l.006.01v.008l.006.009.005.008.006.009.005.008.006.009.006.008.006.008.006.008.005.007.007.01.006.008.007.009.114.011.005.006v.016l.014.016 2.64 2.814a10.119 10.119 0 0 1-8.672 7.266 8.607 8.607 0 0 1-.934.049z" transform="translate(1.849 .988)" style="fill:#ffd200;stroke:transparent;stroke-miterlimit:10"/>
                <path id="Soustraction_6" data-name="Soustraction 6" class="cls-2" d="M6.424 19.074a9.638 9.638 0 0 1-6.219-2.3A3.426 3.426 0 0 1 0 16.6a11.069 11.069 0 0 0 1.21.067 11.01 11.01 0 0 0 1.656-.125 7.87 7.87 0 0 0 3.558.844c.256 0 .515-.013.771-.037a6.173 6.173 0 0 0 4.882-2.724 8.035 8.035 0 0 0 2.1-4.411l1.623 1.722a10.016 10.016 0 0 1-1.838 3.516A9.636 9.636 0 0 1 7.35 19.03a9.895 9.895 0 0 1-.926.044zm7.685-11.55a8.043 8.043 0 0 0-1.888-3.83A18.847 18.847 0 0 0 10.52 0a9.779 9.779 0 0 1 2.14 1.38 9.976 9.976 0 0 1 3.018 4.47L14.11 7.522z" transform="translate(5.42 2.171)"/>
                <path id="Soustraction_5" data-name="Soustraction 5" d="M7.816 15.99a7.708 7.708 0 0 1-5.244-2.069A8.038 8.038 0 0 1 .035 8.746 7.959 7.959 0 0 1 7.09.036C7.337.012 7.588 0 7.834 0A7.875 7.875 0 0 1 15.5 6.442l-.64.682a.911.911 0 0 0-.241.617v.037a.857.857 0 0 0 .241.6l.71.757a8.094 8.094 0 0 1-2.316 4.618 7.67 7.67 0 0 1-4.7 2.2 7.207 7.207 0 0 1-.738.037z" transform="translate(4.029 3.252)" style="stroke:transparent;stroke-miterlimit:10;fill:#ff7900"/>
                <path id="Soustraction_4" data-name="Soustraction 4" d="M1.872 15.984A7.963 7.963 0 0 0 8.05 7.409 7.854 7.854 0 0 0 .268.164H0A7.831 7.831 0 0 1 .866.036C1.113.012 1.363 0 1.609 0a7.875 7.875 0 0 1 7.668 6.443l-.64.682a.9.9 0 0 0-.241.617v.037a.856.856 0 0 0 .241.6l.71.757a8.093 8.093 0 0 1-2.317 4.615 7.67 7.67 0 0 1-4.7 2.2 5.03 5.03 0 0 1-.458.033z" transform="translate(10.252 3.252)" style="fill:#f97600;stroke:transparent;stroke-miterlimit:10"/>
                <path id="Tracé_1436" data-name="Tracé 1436" class="cls-3" d="M727.737 230.661c.186 0 .343.4.395.955.546.053.943.212.943.4s-.4.347-.943.4c-.052.553-.209.955-.395.955s-.343-.4-.395-.955c-.546-.053-.943-.212-.943-.4s.4-.347.943-.4c.052-.553.209-.955.395-.955zm1.972 3.907a.36.36 0 1 1-.355.36.357.357 0 0 1 .355-.36z" transform="translate(-707.785 -230.661)"/>
                <path id="Tracé_1437" data-name="Tracé 1437" class="cls-3" d="M161.045 224.705a9.932 9.932 0 0 1 6.865 1.9 9.92 9.92 0 0 0-6.538-1.671 10.445 10.445 0 0 0-4.963 18.759 10.443 10.443 0 0 1 4.636-18.989z" transform="translate(-149.991 -223.795)"/>
                <g id="Groupe_de_masques_3598" data-name="Groupe de masques 3598" transform="translate(4.029 3.252)" style="clip-path:url(#clip-path)">
                    <g id="Groupe_3849" data-name="Groupe 3849" transform="translate(3.112 3.406)">
                        <ellipse id="Ellipse_356" data-name="Ellipse 356" class="cls-8" cx="4.57" cy="4.632" rx="4.57" ry="4.632"/>
                        <circle id="Ellipse_357" data-name="Ellipse 357" cx="2.505" cy="2.505" r="2.505" transform="translate(1.999 2.026)" style="fill:#ff7900"/>
                        <path id="Rectangle_1975" data-name="Rectangle 1975" class="cls-8" transform="translate(0 4.632)" d="M0 0h1.999v7.526H0z"/>
                    </g>
                </g>
                <g id="Groupe_5634" data-name="Groupe 5634" transform="rotate(90 8.252 16.749)">
                    <path id="Shape" d="m.18 3.337 1.152-.016V.419a.408.408 0 0 1 .127-.3.443.443 0 0 1 .31-.119h1.485a.443.443 0 0 1 .309.122.408.408 0 0 1 .127.3v2.9h1.321L2.906 5.3a.547.547 0 0 1-.382.154H2.5a.576.576 0 0 1-.394-.154L0 3.321h1.332z" style="fill:#50be87;fill-rule:evenodd"/>
                </g>
            </g>
        </g>
    </g>
</svg>
